<?xml version="1.0" encoding="utf-8"?>
<svg version="1.1" viewBox="0 35 450 223" xmlns="http://www.w3.org/2000/svg">
  <defs>
    <linearGradient x1="65" y1="235" x2="485" y2="235" gradientUnits="userSpaceOnUse" id="color-12885685683">
      <stop offset="0" stop-color="#8360c3"/>
      <stop offset="1" stop-color="#2ebf91"/>
    </linearGradient>
  </defs>
  <g fill="url(#color-12885685683)" fill-rule="none" stroke="none" stroke-width="1" stroke-linecap="butt" stroke-linejoin="miter" stroke-miterlimit="10" stroke-dasharray="" stroke-dashoffset="0" font-family="none" font-weight="none" font-size="none" text-anchor="none" style="mix-blend-mode: normal" transform="matrix(1, 0, 0, 1, -50, -88.499985)">
    <g data-paper-data="{&quot;isGlobalGroup&quot;:true,&quot;bounds&quot;:{&quot;x&quot;:65,&quot;y&quot;:137.82939276957512,&quot;width&quot;:420,&quot;height&quot;:194.34121446084976}}">
      <g data-paper-data="{&quot;isSecondaryText&quot;:true}" fill-rule="nonzero">
        <path d="M112.05966,321.0185c-1.33577,0 -2.93558,0 -4.27135,0v10.87253c1.33577,0 2.93558,0 4.27135,0c3.80538,0 5.48286,-2.78026 5.43626,-5.52946c-0.0466,-2.68707 -1.70854,-5.34307 -5.43626,-5.34307zM109.82302,322.96002h2.23663c2.36089,0 3.35495,1.69301 3.40155,3.38602c0.0466,1.77067 -0.93193,3.5724 -3.40155,3.5724h-2.23663z" data-paper-data="{&quot;glyphName&quot;:&quot;D&quot;,&quot;glyphIndex&quot;:0,&quot;firstGlyphOfWord&quot;:true,&quot;word&quot;:1}"/>
        <path d="M130.19089,329.87184h-6.10415v-2.45408h5.8867v-1.91046h-5.8867v-2.50068h6.10415v-1.98812h-8.13886c0,3.619 0,7.25353 0,10.87253h8.13886z" data-paper-data="{&quot;glyphName&quot;:&quot;E&quot;,&quot;glyphIndex&quot;:1,&quot;word&quot;:1}"/>
        <path d="M143.678,322.8047c-0.82321,-1.67748 -2.57834,-2.15897 -4.27135,-2.15897c-2.00365,0.01553 -4.20922,0.93193 -4.20922,3.16856c0,2.43855 2.05025,3.02878 4.27135,3.29282c1.44449,0.15532 2.51621,0.57469 2.51621,1.59981c0,1.18045 -1.21151,1.63088 -2.50068,1.63088c-1.32024,0 -2.57834,-0.52809 -3.05984,-1.72407l-1.70854,0.88533c0.80767,1.98812 2.51621,2.67154 4.73732,2.67154c2.42302,0 4.56646,-1.04066 4.56646,-3.46368c0,-2.59387 -2.11238,-3.1841 -4.38007,-3.46368c-1.3047,-0.15532 -2.42302,-0.41937 -2.42302,-1.36683c0,-0.80767 0.73001,-1.44449 2.25217,-1.44449c1.18045,0 2.20557,0.59022 2.57834,1.21151z" data-paper-data="{&quot;glyphName&quot;:&quot;S&quot;,&quot;glyphIndex&quot;:2,&quot;word&quot;:1}"/>
        <path d="M156.94766,329.87184h-6.10415v-2.45408h5.8867v-1.91046h-5.8867v-2.50068h6.10415v-1.98812h-8.13886c0,3.619 0,7.25353 0,10.87253h8.13886z" data-paper-data="{&quot;glyphName&quot;:&quot;E&quot;,&quot;glyphIndex&quot;:3,&quot;word&quot;:1}"/>
        <path d="M169.23879,327.75947l-5.32754,-6.74097h-1.66194v10.87253h2.05025v-7.33119l5.71584,7.34672v-0.01553h1.27364v-10.88806h-2.05025z" data-paper-data="{&quot;glyphName&quot;:&quot;N&quot;,&quot;glyphIndex&quot;:4,&quot;word&quot;:1}"/>
        <path d="M186.8264,321.0185h-2.29876l-3.29282,8.46504l-3.27729,-8.46504h-2.29876l4.51986,10.91912h2.12791z" data-paper-data="{&quot;glyphName&quot;:&quot;V&quot;,&quot;glyphIndex&quot;:5,&quot;word&quot;:1}"/>
        <path d="M196.43046,320.80105c-3.75879,0 -5.59159,2.87345 -5.59159,5.73137c0,2.85792 1.77067,5.60712 5.59159,5.60712c3.82092,0 5.54499,-2.81132 5.57605,-5.62265c0.03106,-2.84239 -1.8328,-5.71584 -5.57605,-5.71584zM196.43046,322.66491c2.56281,0 3.58793,2.05025 3.55687,3.88305c-0.03106,1.7862 -0.99406,3.71219 -3.55687,3.71219c-2.56281,0 -3.52581,-1.91046 -3.5724,-3.69666c-0.0466,-1.8328 1.00959,-3.89858 3.5724,-3.89858z" data-paper-data="{&quot;glyphName&quot;:&quot;O&quot;,&quot;glyphIndex&quot;:6,&quot;word&quot;:1}"/>
        <path d="M206.74901,321.0185v10.87253h7.64183v-1.89493h-5.59159v-8.9776z" data-paper-data="{&quot;glyphName&quot;:&quot;L&quot;,&quot;glyphIndex&quot;:7,&quot;word&quot;:1}"/>
        <path d="M229.4933,321.0185h-2.29876l-3.29282,8.46504l-3.27729,-8.46504h-2.29876l4.51986,10.91912h2.12791z" data-paper-data="{&quot;glyphName&quot;:&quot;V&quot;,&quot;glyphIndex&quot;:8,&quot;word&quot;:1}"/>
        <path d="M242.09508,329.87184h-6.10415v-2.45408h5.8867v-1.91046h-5.8867v-2.50068h6.10415v-1.98812h-8.13886c0,3.619 0,7.25353 0,10.87253h8.13886z" data-paper-data="{&quot;glyphName&quot;:&quot;E&quot;,&quot;glyphIndex&quot;:9,&quot;word&quot;:1}"/>
        <path d="M251.04679,321.0185c-1.33577,0 -2.93558,0 -4.27135,0v10.87253c1.33577,0 2.93558,0 4.27135,0c3.80538,0 5.48286,-2.78026 5.43626,-5.52946c-0.0466,-2.68707 -1.70854,-5.34307 -5.43626,-5.34307zM248.81015,322.96002h2.23663c2.36089,0 3.35495,1.69301 3.40155,3.38602c0.0466,1.77067 -0.93193,3.5724 -3.40155,3.5724h-2.23663z" data-paper-data="{&quot;glyphName&quot;:&quot;D&quot;,&quot;glyphIndex&quot;:10,&quot;word&quot;:1}"/>
        <path d="M266.33563,320.80105c-3.75879,0 -5.59159,2.87345 -5.59159,5.73137c0,2.85792 1.77067,5.60712 5.59159,5.60712c3.82092,0 5.54499,-2.81132 5.57605,-5.62265c0.03106,-2.84239 -1.8328,-5.71584 -5.57605,-5.71584zM266.33563,322.66491c2.56281,0 3.58793,2.05025 3.55687,3.88305c-0.03106,1.7862 -0.99406,3.71219 -3.55687,3.71219c-2.56281,0 -3.52581,-1.91046 -3.5724,-3.69666c-0.0466,-1.8328 1.00959,-3.89858 3.5724,-3.89858z" data-paper-data="{&quot;glyphName&quot;:&quot;O&quot;,&quot;glyphIndex&quot;:11,&quot;word&quot;:1}"/>
        <path d="M286.29966,331.75124l-3.29282,-3.71219c2.06578,-0.41937 2.7492,-1.92599 2.7492,-3.41708c0,-1.87939 -1.3513,-3.58793 -3.91411,-3.60347c-1.72407,0 -3.44814,-0.01553 -5.17222,-0.01553v10.88806h2.05025v-3.63453h1.97259l3.16856,3.63453h2.43855zM281.84193,322.92896c1.28917,0 1.86386,0.8698 1.86386,1.7396c0,0.8698 -0.55916,1.7396 -1.86386,1.7396h-3.12197v-3.47921z" data-paper-data="{&quot;glyphName&quot;:&quot;R&quot;,&quot;glyphIndex&quot;:12,&quot;lastGlyphOfWord&quot;:true,&quot;word&quot;:1}"/>
        <path d="M300.8792,321.0185c-1.33577,0 -2.93558,0 -4.27135,0v10.87253c1.33577,0 2.93558,0 4.27135,0c3.80538,0 5.48286,-2.78026 5.43626,-5.52946c-0.0466,-2.68707 -1.70854,-5.34307 -5.43626,-5.34307zM298.64257,322.96002h2.23663c2.36089,0 3.35495,1.69301 3.40155,3.38602c0.0466,1.77067 -0.93193,3.5724 -3.40155,3.5724h-2.23663z" data-paper-data="{&quot;glyphName&quot;:&quot;D&quot;,&quot;glyphIndex&quot;:13,&quot;firstGlyphOfWord&quot;:true,&quot;word&quot;:2}"/>
        <path d="M319.01043,329.87184h-6.10415v-2.45408h5.8867v-1.91046h-5.8867v-2.50068h6.10415v-1.98812h-8.13886c0,3.619 0,7.25353 0,10.87253h8.13886z" data-paper-data="{&quot;glyphName&quot;:&quot;E&quot;,&quot;glyphIndex&quot;:14,&quot;lastGlyphOfWord&quot;:true,&quot;word&quot;:2}"/>
        <path d="M338.54474,322.8047c-0.82321,-1.67748 -2.57834,-2.15897 -4.27135,-2.15897c-2.00365,0.01553 -4.20922,0.93193 -4.20922,3.16856c0,2.43855 2.05025,3.02878 4.27135,3.29282c1.44449,0.15532 2.51621,0.57469 2.51621,1.59981c0,1.18045 -1.21151,1.63088 -2.50068,1.63088c-1.32024,0 -2.57834,-0.52809 -3.05984,-1.72407l-1.70854,0.88533c0.80767,1.98812 2.51621,2.67154 4.73732,2.67154c2.42302,0 4.56646,-1.04066 4.56646,-3.46368c0,-2.59387 -2.11238,-3.1841 -4.38007,-3.46368c-1.3047,-0.15532 -2.42302,-0.41937 -2.42302,-1.36683c0,-0.80767 0.73001,-1.44449 2.25217,-1.44449c1.18045,0 2.20557,0.59022 2.57834,1.21151z" data-paper-data="{&quot;glyphName&quot;:&quot;S&quot;,&quot;glyphIndex&quot;:15,&quot;firstGlyphOfWord&quot;:true,&quot;word&quot;:3}"/>
        <path d="M348.81669,320.80105c-3.75879,0 -5.59159,2.87345 -5.59159,5.73137c0,2.85792 1.77067,5.60712 5.59159,5.60712c3.82092,0 5.54499,-2.81132 5.57605,-5.62265c0.03106,-2.84239 -1.8328,-5.71584 -5.57605,-5.71584zM348.81669,322.66491c2.56281,0 3.58793,2.05025 3.55687,3.88305c-0.03106,1.7862 -0.99406,3.71219 -3.55687,3.71219c-2.56281,0 -3.52581,-1.91046 -3.5724,-3.69666c-0.0466,-1.8328 1.00959,-3.89858 3.5724,-3.89858z" data-paper-data="{&quot;glyphName&quot;:&quot;O&quot;,&quot;glyphIndex&quot;:16,&quot;word&quot;:3}"/>
        <path d="M361.18548,331.89103v-4.02283h5.4518v-1.89493h-5.4518v-2.96665h5.76244v-1.97259h-7.81269v10.85699z" data-paper-data="{&quot;glyphName&quot;:&quot;F&quot;,&quot;glyphIndex&quot;:17,&quot;word&quot;:3}"/>
        <path d="M374.89004,331.89103h2.05025v-9.00866h3.44814v-1.86386c-3.15303,0 -5.80904,0 -8.94654,0v1.86386h3.44814z" data-paper-data="{&quot;glyphName&quot;:&quot;T&quot;,&quot;glyphIndex&quot;:18,&quot;word&quot;:3}"/>
        <path d="M401.02035,321.0185h-2.29876l-2.48515,7.84375l-2.71813,-7.84375h-1.33577l-2.64047,7.84375l-2.56281,-7.84375h-2.29876l3.99177,10.87253h1.7396l1.32024,-3.38602l1.13385,-3.46368l1.14938,3.43261l1.3513,3.41708h1.7396z" data-paper-data="{&quot;glyphName&quot;:&quot;W&quot;,&quot;glyphIndex&quot;:19,&quot;word&quot;:3}"/>
        <path d="M414.15022,331.89103h2.23663l-4.8771,-10.87253h-2.23663l-4.8771,10.87253h2.2211l0.93193,-2.05025h5.68478zM412.41061,327.93032h-4.03837l2.01918,-4.62859z" data-paper-data="{&quot;glyphName&quot;:&quot;A&quot;,&quot;glyphIndex&quot;:20,&quot;word&quot;:3}"/>
        <path d="M430.02928,331.75124l-3.29282,-3.71219c2.06578,-0.41937 2.7492,-1.92599 2.7492,-3.41708c0,-1.87939 -1.3513,-3.58793 -3.91411,-3.60347c-1.72407,0 -3.44814,-0.01553 -5.17222,-0.01553v10.88806h2.05025v-3.63453h1.97259l3.16856,3.63453h2.43855zM425.57155,322.92896c1.28917,0 1.86386,0.8698 1.86386,1.7396c0,0.8698 -0.55916,1.7396 -1.86386,1.7396h-3.12197v-3.47921z" data-paper-data="{&quot;glyphName&quot;:&quot;R&quot;,&quot;glyphIndex&quot;:21,&quot;word&quot;:3}"/>
        <path d="M442.21169,329.87184h-6.10415v-2.45408h5.8867v-1.91046h-5.8867v-2.50068h6.10415v-1.98812h-8.13886c0,3.619 0,7.25353 0,10.87253h8.13886z" data-paper-data="{&quot;glyphName&quot;:&quot;E&quot;,&quot;glyphIndex&quot;:22,&quot;lastGlyphOfWord&quot;:true,&quot;word&quot;:3}"/>
      </g>
      <g data-paper-data="{&quot;isPrimaryText&quot;:true}" fill-rule="nonzero">
        <path d="M75.11532,273.82984h-3.38606v3.38606h3.38606zM117.24819,273.82984h-38.74681v3.38606h3.3432v3.38606h-6.72926v3.3432h8.44372v3.38606h1.6716v3.38606h-6.72926v3.3432h6.72926v3.38606h-6.72926v3.38606h3.3432v3.3432h1.71446v3.38606h13.45852v-10.11532h3.38606l3.38606,3.38606v6.72926h13.45852v-11.78692l-3.3432,-3.38606l3.3432,-3.38606zM103.78967,287.33122h-6.77212v-3.38606h6.77212zM71.72926,280.60196h-6.72926v3.3432h6.72926zM75.11532,287.33122h-6.72926v3.38606h6.72926zM75.11532,294.06048h-10.11532v3.38606h10.11532zM70.22911,300.8326v3.3432h5.05766v-3.3432zM80.34442,304.1758h-3.38606v3.38606h3.38606z" data-paper-data="{&quot;glyphName&quot;:&quot;&quot;,&quot;glyphIndex&quot;:0,&quot;firstGlyphOfWord&quot;:true,&quot;word&quot;:1}"/>
        <path d="M120.67711,307.56186h13.50138v-10.11532h6.72926v10.11532h13.50138v-33.73201h-33.73201zM134.17849,283.94516h6.72926v3.38606h-6.72926z" data-paper-data="{&quot;glyphName&quot;:&quot;A&quot;,&quot;glyphIndex&quot;:1,&quot;word&quot;:1}"/>
        <path d="M188.95551,273.82984h-31.11746v33.73201h13.50138v-13.50138h10.84396v-6.72926h-10.84396v-3.38606h17.61608z" data-paper-data="{&quot;glyphName&quot;:&quot;F&quot;,&quot;glyphIndex&quot;:2,&quot;word&quot;:1}"/>
        <path d="M192.38443,307.56186h13.50138v-10.11532h6.72926v10.11532h13.50138v-33.73201h-33.73201zM205.8858,283.94516h6.72926v3.38606h-6.72926z" data-paper-data="{&quot;glyphName&quot;:&quot;A&quot;,&quot;glyphIndex&quot;:3,&quot;word&quot;:1}"/>
        <path d="M229.54536,273.82984v33.73201h31.11746v-10.11532h-17.61608v-3.38606h10.84396v-6.72926h-10.84396v-3.38606h17.61608v-10.11532z" data-paper-data="{&quot;glyphName&quot;:&quot;E&quot;,&quot;glyphIndex&quot;:4,&quot;word&quot;:1}"/>
        <path d="M264.09174,273.82984v33.73201h33.73201v-10.11532h-20.23064v-23.6167z" data-paper-data="{&quot;glyphName&quot;:&quot;L&quot;,&quot;glyphIndex&quot;:5,&quot;lastGlyphOfWord&quot;:true,&quot;word&quot;:1}"/>
        <path d="M349.98622,307.56186h33.73201v-20.23064h-33.73201zM363.4876,295.77494h6.72926v3.3432h-6.72926zM323.02633,283.94516h10.11532v23.6167h13.50138v-23.6167h37.07521v-10.11532h-60.69191z" data-paper-data="{&quot;glyphName&quot;:&quot;&quot;,&quot;glyphIndex&quot;:6,&quot;firstGlyphOfWord&quot;:true,&quot;word&quot;:2}"/>
        <path d="M420.87917,307.56186v-20.23064h-20.23064v-3.38606h20.23064v-10.11532h-33.73201v20.23064h20.23064v3.38606h-20.23064v10.11532z" data-paper-data="{&quot;glyphName&quot;:&quot;S&quot;,&quot;glyphIndex&quot;:7,&quot;word&quot;:2}"/>
        <path d="M424.30809,273.82984v10.11532h10.11532v23.6167h13.50138v-23.6167h37.07521v-10.11532zM451.26799,307.56186h13.50138v-1.6716h6.72926v1.6716h13.50138v-20.23064h-33.73201zM464.76936,295.77494h6.72926v3.3432h-6.72926z" data-paper-data="{&quot;glyphName&quot;:&quot;&quot;,&quot;glyphIndex&quot;:8,&quot;lastGlyphOfWord&quot;:true,&quot;word&quot;:2}"/>
      </g>
      <g data-paper-data="{&quot;isIcon&quot;:&quot;true&quot;,&quot;selectedEffects&quot;:{&quot;container&quot;:&quot;&quot;,&quot;transformation&quot;:&quot;&quot;,&quot;pattern&quot;:&quot;&quot;},&quot;fillRule&quot;:&quot;evenodd&quot;,&quot;fillRuleOriginal&quot;:&quot;evenodd&quot;,&quot;iconType&quot;:&quot;icon&quot;,&quot;rawIconId&quot;:&quot;110890&quot;,&quot;combineTerms&quot;:&quot;code&quot;,&quot;iconStyle&quot;:&quot;standalone&quot;,&quot;bounds&quot;:{&quot;x&quot;:185.29261017799865,&quot;y&quot;:137.82939276957512,&quot;width&quot;:179.4147796440027,&quot;height&quot;:113.86170475162245},&quot;suitableAsStandaloneIcon&quot;:true}" fill-rule="evenodd">
        <g data-paper-data="{&quot;isPathIcon&quot;:true}">
          <path d="M254.14191,246.46033c-0.15,-0.897 -0.125,-1.76501 0.078,-2.61001l31.31514,-102.02844c0.556,-2.17201 2.06601,-3.46702 4.53802,-3.88502c1.79401,-0.304 3.52802,0.037 5.19602,1.023c1.66801,0.99 2.65501,2.38301 2.95501,4.17702c0.17,1.01 0.097,1.94801 -0.215,2.80901l-31.23514,101.49344c-0.649,2.30101 -2.32101,3.68102 -5.01302,4.14002c-1.91101,0.324 -3.58802,-0.057 -5.04102,-1.137c-1.45301,-1.084 -2.31001,-2.41101 -2.57801,-3.98202z"/>
          <path d="M308.11214,229.25025c-1.76601,-1.64801 -2.64701,-3.61302 -2.64701,-5.89003c0,-2.27701 0.796,-3.92502 2.39101,-4.95202l36.02416,-23.5631l-36.02416,-23.5591c-1.59501,-1.25401 -2.39101,-2.90201 -2.39101,-4.95202c0,-2.27701 0.881,-4.26602 2.64701,-5.97503c1.76601,-1.70901 3.61202,-2.56101 5.54902,-2.56101c1.022,0 1.81801,0.231 2.39001,0.682l44.9022,29.36713c2.50001,1.70901 3.75402,4.04302 3.75402,6.99803c0,2.96301 -1.25401,5.23602 -3.75402,6.83203l-44.9022,29.36713c-0.572,0.455 -1.36801,0.682 -2.39001,0.682c-1.93701,0 -3.78302,-0.824 -5.54902,-2.47601z"/>
          <path d="M189.04663,187.85107c-2.50401,1.70501 -3.75402,4.03902 -3.75402,6.99803c0,2.84601 1.25001,5.11902 3.75402,6.82803l44.9022,29.37113c0.568,0.455 1.42001,0.682 2.56101,0.682c1.93201,0 3.78302,-0.824 5.54902,-2.47601c1.76501,-1.64801 2.64601,-3.61302 2.64601,-5.89003c0,-2.39101 -0.856,-4.03902 -2.56901,-4.95202l-36.01216,-23.5631l36.01216,-23.5591c1.71301,-1.136 2.56901,-2.78801 2.56901,-4.95202c0,-2.27701 -0.885,-4.26602 -2.64601,-5.97503c-1.76601,-1.70801 -3.61702,-2.56101 -5.54902,-2.56101c-1.141,0 -1.99301,0.227 -2.56101,0.682z"/>
        </g>
      </g>
    </g>
  </g>
</svg>